<svg xmlns="http://www.w3.org/2000/svg" viewBox="0 0 1600 500" preserveAspectRatio="xMidYMid slice">
  <rect width="1600" height="500" fill="#171717"/>
  <g fill="#8f8f8f" opacity="0.16">
    <rect x="0" y="0" width="320" height="250"/>
    <rect x="328" y="0" width="302" height="250"/>
    <rect x="638" y="0" width="332" height="250"/>
    <rect x="978" y="0" width="284" height="250"/>
    <rect x="1268" y="0" width="332" height="250"/>
    <rect x="0" y="258" width="272" height="242"/>
    <rect x="280" y="258" width="334" height="242"/>
    <rect x="622" y="258" width="296" height="242"/>
    <rect x="926" y="258" width="356" height="242"/>
    <rect x="1290" y="258" width="310" height="242"/>
  </g>
  <g stroke="#d5d5d5" stroke-opacity="0.12" stroke-width="3">
    <path d="M0 120 L1600 30"/><path d="M0 260 L1600 210"/><path d="M0 430 L1600 360"/>
    <path d="M200 0 L140 500"/><path d="M520 0 L470 500"/><path d="M980 0 L910 500"/><path d="M1320 0 L1250 500"/>
  </g>
</svg>
